<?xml version="1.0" encoding="UTF-8"?><svg id="a" xmlns="http://www.w3.org/2000/svg" xmlns:xlink="http://www.w3.org/1999/xlink" viewBox="0 0 587.78 262.46"><defs><style>.c{fill:#fff;}.d{fill:url(#b);}</style><radialGradient id="b" cx="458.32" cy="131.23" fx="458.32" fy="131.23" r="82.05" gradientTransform="matrix(1, 0, 0, 1, 0, 0)" gradientUnits="userSpaceOnUse"><stop offset=".3" stop-color="#2690bf"/><stop offset=".75" stop-color="#27aae1" stop-opacity="0"/></radialGradient></defs><g><path d="M458.32,64.65c-36.77,0-66.58,29.81-66.58,66.58s29.81,66.59,66.58,66.59,66.58-29.81,66.58-66.59-29.81-66.58-66.58-66.58Zm0,.5l31.61,31.62-31.61,31.61-31.62-31.61,31.62-31.62Zm-66.07,66.07l31.61-31.61,31.61,31.61-31.6,31.61-31.62-31.61Zm66.07,66.08l-31.62-31.61,31.62-31.62,31.61,31.62-31.61,31.61Zm34.45-34.46l-31.61-31.61,31.62-31.61,31.6,31.61-31.61,31.61Z" style="fill:url(#b);"/><g><path d="M417.9,167.07l-21.17,21.17c-3.55,3.55-9.3,3.55-12.85,0l-52.37-52.37c-3.55-3.55-3.55-9.3,0-12.85l52.37-52.36c3.55-3.55,9.3-3.55,12.85,0l21.15,21.16c3.55,3.55,3.55,9.3,0,12.85l-18.35,18.35c-3.55,3.55-3.55,9.3,0,12.85l18.36,18.35c3.55,3.55,3.55,9.3,0,12.85Z" style="fill:#fff;"/><path d="M517.1,67.86l-21.15,21.16c-3.55,3.55-9.3,3.55-12.85,0l-18.35-18.36c-3.55-3.55-9.3-3.55-12.85,0l-18.36,18.36c-3.55,3.55-9.3,3.55-12.85,0l-21.15-21.16c-3.55-3.55-3.55-9.3,0-12.85L451.9,2.66c3.55-3.55,9.3-3.55,12.85,0l52.35,52.36c3.55,3.55,3.55,9.3,0,12.85Z" style="fill:#fff;"/><path d="M517.97,206.57l-53.23,53.23c-3.55,3.55-9.3,3.55-12.85,0l-53.23-53.23c-3.55-3.55-3.55-9.3,0-12.85l21.61-21.62c3.55-3.55,9.3-3.55,12.85,0l18.77,18.77c3.55,3.55,9.3,3.55,12.85,0l18.77-18.77c3.55-3.55,9.3-3.55,12.85,0l21.62,21.62c3.55,3.55,3.55,9.3,0,12.85Z" style="fill:#fff;"/><path d="M585.12,135.88l-52.36,52.37c-3.55,3.55-9.3,3.55-12.85,0l-21.17-21.17c-3.55-3.55-3.55-9.3,0-12.85l18.35-18.35c3.55-3.55,3.55-9.3,0-12.85l-18.34-18.35c-3.55-3.55-3.55-9.3,0-12.84l21.15-21.16c3.55-3.55,9.3-3.55,12.85,0l52.36,52.36c3.55,3.55,3.55,9.3,0,12.85Z" style="fill:#fff;"/></g><g><rect x="405.87" y="110.58" width="41.27" height="41.28" transform="translate(32.13 340.02) rotate(-45)" style="fill:#fff;"/><rect x="437.68" y="142.4" width="41.28" height="41.28" transform="translate(18.95 371.83) rotate(-45)" style="fill:#fff;"/><rect x="437.68" y="78.77" width="41.28" height="41.28" transform="translate(63.94 353.2) rotate(-45)" style="fill:#fff;"/><rect x="469.49" y="110.59" width="41.28" height="41.27" transform="translate(50.77 385.01) rotate(-45)" style="fill:#fff;"/></g></g><g><path d="M10.43,249.14h-3.9v13.01h-2.19c-.03-.19-.07-.4-.1-.62-.03-.19-.06-.4-.08-.64-.02-.23-.03-.47-.03-.72v-11.03H0v-1.77H10.9l-.47,1.77Z" style="fill:#fff;"/><path d="M32.42,262.15c-.1-.12-.19-.25-.26-.39-.07-.12-.14-.26-.22-.42-.08-.16-.14-.33-.2-.52l-1.07-3.07h-4.84l-1.53,4.4h-2.13c.03-.23,.09-.45,.16-.68,.05-.19,.11-.41,.17-.65,.06-.24,.13-.47,.2-.68l4.66-12.78h1.93c.1,.16,.21,.33,.31,.52,.21,.35,.4,.76,.57,1.25l4.5,13.01h-2.24Zm-3.46-10.04c-.04-.14-.09-.33-.16-.57s-.13-.49-.2-.73-.12-.46-.18-.64c-.06-.18-.09-.28-.09-.3l-.68,2.24-1.33,3.93h3.88l-1.25-3.93Z" style="fill:#fff;"/><path d="M57.48,262.15c-.05-.19-.1-.4-.13-.62-.04-.19-.06-.4-.08-.64-.02-.23-.03-.47-.03-.72v-4.92h-5.78v6.9h-2.19c-.04-.19-.07-.4-.1-.62-.04-.19-.06-.4-.08-.64-.02-.23-.03-.47-.03-.72v-12.8h2.16c.03,.19,.07,.39,.1,.6,.03,.19,.06,.4,.09,.61s.04,.45,.04,.69v4.19h5.78v-6.09h2.16c.02,.19,.04,.39,.08,.6,.03,.19,.06,.4,.08,.61,.02,.22,.03,.45,.03,.69v12.88h-2.11Z" style="fill:#fff;"/><path d="M75.66,262.15c-.04-.19-.07-.4-.1-.62-.04-.19-.06-.4-.08-.64-.02-.23-.03-.47-.03-.72v-12.8h2.16c.03,.19,.07,.39,.1,.6,.03,.19,.06,.4,.09,.61s.04,.45,.04,.69v11.08h5.85v1.8h-8.04Z" style="fill:#fff;"/><path d="M98.45,262.15c-.03-.19-.07-.4-.1-.62-.03-.19-.06-.4-.08-.64-.02-.23-.03-.47-.03-.72v-12.8h2.16c.03,.19,.07,.39,.1,.6,.03,.19,.06,.4,.09,.61,.03,.22,.04,.45,.04,.69v12.88h-2.19Z" style="fill:#fff;"/><path d="M116.7,262.15c-.04-.19-.07-.4-.1-.62-.04-.19-.06-.4-.08-.64-.02-.23-.03-.47-.03-.72v-12.8h2.16c.03,.19,.07,.39,.1,.6,.03,.19,.06,.4,.09,.61s.04,.45,.04,.69v11.08h5.85v1.8h-8.04Z" style="fill:#fff;"/><path d="M168.76,262.15c-.04-.16-.07-.33-.1-.52-.09-.36-.16-.85-.23-1.46l-.78-6.04c-.03-.26-.06-.54-.09-.83-.03-.29-.05-.57-.08-.83-.03-.26-.05-.49-.07-.68-.02-.19-.03-.3-.03-.34-.02,.05-.05,.16-.09,.33-.04,.16-.1,.36-.17,.59-.07,.23-.15,.47-.23,.74-.09,.27-.18,.52-.29,.77l-2.34,6.82h-1.48c-.1-.12-.2-.26-.29-.42-.09-.14-.17-.29-.25-.47s-.14-.36-.2-.57l-1.77-5.2c-.07-.19-.14-.42-.22-.68-.08-.26-.15-.52-.21-.77s-.11-.47-.14-.65c-.04-.18-.05-.29-.05-.33l-.29,2.42-.99,8.12h-1.64c-.02-.19-.04-.4-.05-.62-.02-.19-.03-.4-.03-.64s.02-.47,.05-.72l1.67-12.8h1.69c.12,.19,.23,.39,.34,.6,.09,.19,.18,.4,.29,.61s.2,.44,.29,.66l1.98,6.01c.05,.16,.12,.38,.2,.66s.16,.58,.25,.87c.09,.33,.18,.68,.29,1.04,.12-.38,.23-.75,.34-1.09,.09-.29,.17-.59,.26-.88,.09-.29,.16-.53,.23-.7l2.81-7.78h1.59c.05,.21,.11,.41,.18,.6,.05,.19,.1,.39,.14,.6,.04,.21,.08,.43,.12,.68l1.64,12.91h-2.24Z" style="fill:#fff;"/><path d="M199.05,254.63c0,1.23-.19,2.33-.57,3.3-.38,.97-.88,1.79-1.51,2.46s-1.33,1.18-2.13,1.53c-.8,.36-1.61,.53-2.44,.53-.99,0-1.89-.18-2.7-.53-.81-.36-1.51-.87-2.09-1.55-.58-.68-1.03-1.5-1.35-2.46s-.48-2.06-.48-3.29,.18-2.29,.55-3.23,.85-1.73,1.47-2.37c.62-.64,1.32-1.12,2.12-1.44,.8-.32,1.63-.48,2.49-.48,1.06,0,1.99,.17,2.82,.52,.82,.35,1.52,.85,2.09,1.5,.57,.65,1,1.44,1.3,2.37,.29,.93,.44,1.97,.44,3.14Zm-2.39,0c0-.82-.08-1.58-.25-2.29-.16-.71-.42-1.33-.77-1.85-.35-.52-.79-.93-1.33-1.22-.54-.29-1.17-.44-1.9-.44-.62,0-1.19,.13-1.7,.4-.51,.27-.95,.66-1.33,1.17-.37,.51-.66,1.12-.86,1.83-.2,.71-.3,1.51-.3,2.39,0,.82,.08,1.59,.25,2.32,.16,.73,.42,1.37,.77,1.93,.35,.56,.78,1,1.31,1.33,.53,.33,1.15,.49,1.86,.49,.64,0,1.23-.15,1.76-.46,.53-.3,.98-.72,1.34-1.26s.65-1.17,.85-1.91c.2-.74,.3-1.55,.3-2.43Z" style="fill:#fff;"/><path d="M224,257.75c0,.71-.1,1.33-.31,1.86s-.5,.98-.87,1.34c-.37,.36-.82,.65-1.33,.85-.51,.2-1.07,.32-1.68,.35-.21,.02-.53,.03-.98,.03s-.92,0-1.43-.01c-.51,0-1.02-.02-1.54-.03-.51,0-.95-.02-1.31-.04-.04-.21-.07-.42-.1-.65-.04-.19-.06-.4-.08-.62-.02-.22-.03-.44-.03-.65v-12.8c.68-.02,1.43-.03,2.26-.04,.83,0,1.59-.01,2.26-.01s1.3,.08,1.86,.23c.56,.16,1.05,.39,1.46,.7,.41,.31,.73,.7,.96,1.17,.23,.47,.35,1.01,.35,1.64,0,.73-.22,1.36-.65,1.89-.43,.53-.98,.93-1.64,1.21,.23,.05,.5,.16,.82,.31,.32,.16,.63,.37,.92,.65,.29,.28,.54,.63,.74,1.07,.2,.43,.3,.95,.3,1.56Zm-2.81-6.5c0-.75-.24-1.31-.73-1.69-.49-.38-1.12-.57-1.9-.57-.33,0-.68,0-1.04,.01-.36,0-.64,.01-.83,.01v4.45c.05,0,.16,0,.31,.01,.16,0,.33,.02,.51,.03s.36,.01,.53,.01h.39c.49,0,.91-.07,1.26-.21s.64-.32,.86-.53,.38-.46,.48-.73,.16-.53,.16-.79Zm.42,6.47c0-.47-.09-.86-.26-1.19-.17-.33-.4-.59-.68-.8-.28-.21-.59-.36-.92-.45-.34-.1-.66-.14-.98-.14h-1.11c-.22,0-.42,0-.6-.01-.18,0-.31-.01-.38-.01v5.28c.1,0,.25,0,.44,.01,.19,0,.39,.01,.61,.01h1.08c1.01,0,1.72-.25,2.15-.76s.64-1.15,.64-1.93Z" style="fill:#fff;"/><path d="M239.43,262.15c-.03-.19-.07-.4-.1-.62-.03-.19-.06-.4-.08-.64-.02-.23-.03-.47-.03-.72v-12.8h2.16c.03,.19,.07,.39,.1,.6,.03,.19,.06,.4,.09,.61,.03,.22,.04,.45,.04,.69v12.88h-2.19Z" style="fill:#fff;"/><path d="M257.67,262.15c-.04-.19-.07-.4-.1-.62-.04-.19-.06-.4-.08-.64-.02-.23-.03-.47-.03-.72v-12.8h2.16c.03,.19,.07,.39,.1,.6,.03,.19,.06,.4,.09,.61s.04,.45,.04,.69v11.08h5.85v1.8h-8.04Z" style="fill:#fff;"/><path d="M288.42,249.14h-5.78v4.42h5.18v1.72h-5.18v5.07h6.04v1.8h-8.22c-.04-.19-.07-.4-.1-.62-.04-.19-.06-.4-.08-.64-.02-.23-.03-.47-.03-.72v-12.8h8.51l-.34,1.77Z" style="fill:#fff;"/></g><g><path d="M31.65,216.01c-4.38,0-8.5-.83-12.36-2.5-3.86-1.66-7.22-3.94-10.1-6.82-2.88-2.88-5.13-6.23-6.76-10.04-1.62-3.81-2.44-7.91-2.44-12.3v-18.87H12.17v18.87c0,2.68,.51,5.19,1.52,7.55,1.01,2.35,2.41,4.42,4.2,6.21,1.78,1.78,3.85,3.18,6.21,4.2,2.35,1.01,4.87,1.52,7.55,1.52s5.19-.51,7.55-1.52c2.35-1.01,4.42-2.42,6.21-4.2,1.78-1.78,3.18-3.85,4.2-6.21,1.01-2.35,1.52-4.87,1.52-7.55v-56.85h12.17v52.1c0,2.11,.77,3.9,2.31,5.36,1.54,1.46,3.37,2.19,5.48,2.19h1.95c1.95,0,3.45,.53,4.51,1.58,1.14,1.06,1.7,2.52,1.7,4.38s-.55,3.47-1.64,4.57c-1.1,1.1-2.62,1.64-4.57,1.64h-1.95c-3.65,0-7.02-.97-10.1-2.92-1.22,2.92-2.82,5.58-4.81,7.97-1.99,2.39-4.26,4.46-6.82,6.21-2.56,1.74-5.34,3.08-8.34,4.02-3,.93-6.13,1.4-9.37,1.4Z" style="fill:#fff;"/><path d="M90.33,199.33h-17.17c-1.95,0-3.49-.57-4.63-1.7-1.14-1.05-1.7-2.56-1.7-4.51s.57-3.33,1.7-4.38c1.14-1.05,2.68-1.58,4.63-1.58h17.17c1.05,0,2.05-.22,2.98-.67,.93-.44,1.77-1.05,2.5-1.83,.73-.77,1.3-1.64,1.7-2.62,.41-.97,.61-1.99,.61-3.04v-19.36h12.17v19.72c0,2.68-.53,5.22-1.58,7.61-1.06,2.39-2.5,4.5-4.32,6.33-1.83,1.83-3.96,3.29-6.39,4.38-2.44,1.1-4.99,1.64-7.67,1.64Z" style="fill:#fff;"/><path d="M147.79,199.33h-5.96c-2.76,0-5.36-.53-7.79-1.58-2.44-1.05-4.55-2.48-6.33-4.26-1.79-1.78-3.21-3.9-4.26-6.33-1.06-2.44-1.58-5.03-1.58-7.79v-51.86h11.93v51.98c0,2.11,.77,3.92,2.31,5.42,1.54,1.5,3.45,2.25,5.72,2.25h5.96c1.87,0,3.37,.53,4.51,1.58,1.14,1.06,1.7,2.52,1.7,4.38s-.55,3.47-1.64,4.57c-1.1,1.1-2.62,1.64-4.57,1.64Z" style="fill:#fff;"/><path d="M155.82,199.33h-8.03c-1.95,0-3.49-.57-4.63-1.7-1.14-1.05-1.7-2.56-1.7-4.51s.57-3.33,1.7-4.38c1.14-1.05,2.68-1.58,4.63-1.58h8.03c1.05,0,2.05-.22,2.98-.67,.93-.44,1.76-1.05,2.5-1.83,.73-.77,1.3-1.64,1.7-2.62,.41-.97,.61-1.99,.61-3.04v-19.36h12.17v19.72c0,2.68-.53,5.22-1.58,7.61-1.06,2.39-2.5,4.5-4.32,6.33-1.83,1.83-3.96,3.29-6.39,4.38-2.44,1.1-4.99,1.64-7.67,1.64Z" style="fill:#fff;"/><rect x="143.92" y="213.33" width="11.2" height="11.44" rx="1.78" ry="1.78" style="fill:#fff;"/><path d="M216.57,202c.08-.41,.16-.77,.24-1.1,0-.24,.02-.53,.06-.85,.04-.32,.06-.57,.06-.73h-9.74c-3,0-5.82-.57-8.46-1.7-2.64-1.14-4.93-2.7-6.88-4.69-1.95-1.99-3.49-4.3-4.63-6.94-1.14-2.64-1.7-5.46-1.7-8.46s.57-5.72,1.7-8.4c1.14-2.68,2.68-5.03,4.63-7.06,1.95-2.03,4.24-3.63,6.88-4.81,2.64-1.18,5.46-1.77,8.46-1.77s5.94,.57,8.58,1.7c2.64,1.14,4.93,2.72,6.88,4.75,1.95,2.03,3.49,4.36,4.63,7,1.14,2.64,1.7,5.5,1.7,8.58v9.62h5.84c1.95,0,3.45,.53,4.51,1.58,1.14,1.06,1.7,2.52,1.7,4.38s-.55,3.47-1.64,4.57c-1.1,1.1-2.62,1.64-4.57,1.64h-5.84c-.49,8.44-3.69,15.22-9.62,20.33-1.22,1.05-2.58,1.99-4.08,2.8-1.5,.81-3.04,1.54-4.63,2.19-1.58,.65-3.19,1.22-4.81,1.7-1.62,.49-3.13,.93-4.51,1.34-.41,.16-.83,.28-1.28,.37-.45,.08-.87,.2-1.28,.37l-2.31,.73-3.29-10.47,2.31-.85c.41-.16,.85-.33,1.34-.49,.49-.16,.97-.32,1.46-.49,2.27-.81,4.6-1.66,7-2.56,2.39-.89,4.4-2.03,6.03-3.41,1.87-1.46,3.14-3.04,3.83-4.75,.69-1.7,1.16-3.09,1.4-4.14Zm-9.37-34.33c-1.3,0-2.54,.26-3.71,.79-1.18,.53-2.21,1.24-3.1,2.13-.89,.89-1.6,1.93-2.13,3.1-.53,1.18-.79,2.46-.79,3.83,0,2.68,.95,4.95,2.86,6.82,1.91,1.87,4.2,2.8,6.88,2.8h9.86v-9.62c0-2.68-.97-4.99-2.92-6.94-1.95-1.95-4.26-2.92-6.94-2.92Z" style="fill:#fff;"/><path d="M267.34,199.33c-2.84,0-5.56-.55-8.16-1.64-2.6-1.1-4.91-2.66-6.94-4.69-1.95,2.03-4.16,3.59-6.63,4.69-2.48,1.1-5.05,1.64-7.73,1.64h-3.17c-1.95,0-3.47-.55-4.56-1.64s-1.64-2.62-1.64-4.57,.57-3.33,1.7-4.38c1.14-1.05,2.64-1.58,4.5-1.58h3.17c1.87,0,3.63-.71,5.3-2.13,1.66-1.42,2.5-3.31,2.5-5.66v-11.57h-6.45v-11.93h28.12c3.08,0,5.94,.57,8.58,1.7,2.64,1.14,4.93,2.68,6.88,4.63,1.95,1.95,3.49,4.24,4.63,6.88,1.14,2.64,1.7,5.5,1.7,8.58s-.57,5.83-1.7,8.46c-1.14,2.64-2.7,4.93-4.69,6.88-1.99,1.95-4.3,3.49-6.94,4.63-2.64,1.14-5.46,1.7-8.46,1.7Zm-9.86-31.53v9.86c0,1.3,.26,2.54,.79,3.71,.53,1.18,1.24,2.21,2.13,3.1,.89,.89,1.95,1.6,3.17,2.13,1.22,.53,2.48,.79,3.77,.79,1.38,0,2.66-.26,3.83-.79,1.18-.53,2.21-1.24,3.1-2.13,.89-.89,1.6-1.93,2.13-3.1,.53-1.18,.79-2.41,.79-3.71,0-2.76-.95-5.09-2.86-7-1.91-1.91-4.24-2.86-7-2.86h-9.86Z" style="fill:#fff;"/><rect x="77.34" y="213.27" width="27.05" height="11.56" rx="3.57" ry="3.57" style="fill:#fff;"/></g><g><path d="M31.65,109.97c-4.38,0-8.5-.83-12.36-2.5-3.86-1.66-7.22-3.94-10.1-6.82-2.88-2.88-5.13-6.23-6.76-10.04-1.62-3.81-2.44-7.91-2.44-12.3v-18.87H12.17v18.87c0,2.68,.51,5.19,1.52,7.55,1.01,2.35,2.41,4.42,4.2,6.21,1.78,1.78,3.85,3.18,6.21,4.2,2.35,1.01,4.87,1.52,7.55,1.52s5.19-.51,7.55-1.52c2.35-1.01,4.42-2.42,6.21-4.2,1.78-1.78,3.18-3.85,4.2-6.21,1.01-2.35,1.52-4.87,1.52-7.55V21.47h12.17v52.1c0,2.11,.77,3.9,2.31,5.36,1.54,1.46,3.37,2.19,5.48,2.19h1.95c1.95,0,3.45,.53,4.51,1.58,1.14,1.06,1.7,2.52,1.7,4.38s-.55,3.47-1.64,4.57c-1.1,1.1-2.62,1.64-4.57,1.64h-1.95c-3.65,0-7.02-.97-10.1-2.92-1.22,2.92-2.82,5.58-4.81,7.97-1.99,2.39-4.26,4.46-6.82,6.21-2.56,1.74-5.34,3.08-8.34,4.02-3,.93-6.13,1.4-9.37,1.4Z" style="fill:#fff;"/><path d="M131.26,93.29c-3.33,0-6.7-.37-10.1-1.1-3.41-.73-6.21-2.19-8.4-4.38-3.9,3.65-8.44,5.48-13.63,5.48h-25.38c-1.95,0-3.47-.55-4.57-1.64-1.1-1.1-1.64-2.62-1.64-4.57s.53-3.41,1.58-4.38c1.06-1.05,2.6-1.58,4.63-1.58h25.38c2.11,0,3.94-.79,5.48-2.37,1.54-1.58,2.31-3.51,2.31-5.78v-19.23h12.17v19.6c0,2.11,.75,3.94,2.25,5.48,1.5,1.54,3.35,2.31,5.54,2.31h5.97c1.95,0,3.45,.53,4.5,1.58,1.14,.97,1.7,2.43,1.7,4.38,0,2.6-.75,4.28-2.25,5.05-1.5,.77-3.35,1.16-5.54,1.16Z" style="fill:#fff;"/><rect x="77.34" y="107.42" width="27.05" height="11.56" rx="3.57" ry="3.57" style="fill:#fff;"/><rect x="261.71" y="34.37" width="27.05" height="11.56" rx="3.57" ry="3.57" style="fill:#fff;"/><path d="M166.2,93.29h-2.19c-2.84,0-5.36-.49-7.55-1.46-2.19-.97-4.3-2.39-6.33-4.26-3.82,3.82-8.44,5.72-13.88,5.72h-3.41c-1.95,0-3.47-.55-4.56-1.64-1.1-1.1-1.64-2.62-1.64-4.57,0-1.78,.57-3.24,1.7-4.38,1.22-1.05,2.72-1.58,4.5-1.58h3.41c2.19,0,4.04-.83,5.54-2.5,1.5-1.66,2.25-3.55,2.25-5.66V21.47h12.17v51.5c0,2.19,.77,4.1,2.31,5.72,1.54,1.62,3.37,2.44,5.48,2.44h2.19c1.78,0,3.29,.53,4.51,1.58,1.14,1.14,1.7,2.6,1.7,4.38,0,1.95-.55,3.47-1.64,4.57-1.1,1.1-2.62,1.64-4.57,1.64Z" style="fill:#fff;"/><path d="M258.24,93.29h-21.03c-6.49,0-11.56-2.88-15.22-8.64-2.44,2.43-5.36,4.44-8.77,6.03-3.41,1.58-6.9,2.46-10.47,2.62h-37.05c-1.95,0-3.47-.55-4.56-1.64s-1.64-2.58-1.64-4.44,.57-3.35,1.7-4.44c1.14-1.1,2.64-1.64,4.5-1.64h37.29c4.14,0,7.79-1.95,10.96-5.84l7.55-9.86-14.24-6.82c-1.7-.81-3.61-1.22-5.72-1.22-1.3,0-2.46,.14-3.47,.43-1.01,.28-2.01,.73-2.98,1.34s-1.97,1.42-2.98,2.44c-1.01,1.02-2.21,2.25-3.59,3.71l-1.22,1.34-9.98-4.87,1.34-2.19c2.51-4.38,5.64-7.85,9.37-10.41,3.73-2.56,8.2-3.83,13.39-3.83,3.73,0,7.34,.81,10.83,2.44l18.63,8.89c1.95,.73,3.73,1.1,5.36,1.1h8.28v11.56l-7.06,.61h-.12c-1.62,0-3.17-.12-4.63-.37l-3.17,4.75c.16,1.87,.95,3.43,2.37,4.69,1.42,1.26,3.23,1.97,5.42,2.13h20.91c2.03,0,3.57,.53,4.63,1.58,1.05,.97,1.58,2.43,1.58,4.38s-.55,3.47-1.64,4.57c-1.1,1.1-2.62,1.64-4.57,1.64Z" style="fill:#fff;"/><path d="M268.8,93.29h-9.86c-1.95,0-3.49-.57-4.63-1.7-1.14-1.05-1.7-2.56-1.7-4.51s.57-3.33,1.7-4.38c1.14-1.05,2.68-1.58,4.63-1.58h9.86c1.05,0,2.05-.22,2.98-.67,.93-.44,1.76-1.05,2.5-1.83,.73-.77,1.3-1.64,1.7-2.62,.41-.97,.61-1.99,.61-3.04v-19.36h12.17v19.72c0,2.68-.53,5.22-1.58,7.61-1.06,2.39-2.5,4.5-4.32,6.33-1.83,1.83-3.96,3.29-6.39,4.38-2.43,1.1-4.99,1.64-7.67,1.64Z" style="fill:#fff;"/></g></svg>